<?xml version="1.0"?>
<svg xmlns="http://www.w3.org/2000/svg" xmlns:xlink="http://www.w3.org/1999/xlink" xmlns:svgjs="http://svgjs.com/svgjs" version="1.1" width="512" height="512" x="0" y="0" viewBox="0 0 74 74" style="enable-background:new 0 0 512 512" xml:space="preserve" class=""><g><rect xmlns="http://www.w3.org/2000/svg" fill="#e4e1e9" height="20.907" rx="4.305" width="27.505" x="23.248" y="12.585" data-original="#e1e6e9" style="" class=""/><path xmlns="http://www.w3.org/2000/svg" d="m50.75 16.89v12.3a4.3 4.3 0 0 1 -2.86 4.05 4.417 4.417 0 0 0 .22-1.37v-12.29a4.3 4.3 0 0 0 -4.3-4.31h-18.9a4.271 4.271 0 0 0 -1.44.25 4.31 4.31 0 0 1 4.08-2.93h18.9a4.3 4.3 0 0 1 4.3 4.3z" fill="#969bb3" data-original="#d5d6db" style="" class=""/><path xmlns="http://www.w3.org/2000/svg" d="m23.248 28.439a5.4 5.4 0 0 1 0-10.8z" fill="#969bb3" data-original="#d5d6db" style="" class=""/><path xmlns="http://www.w3.org/2000/svg" d="m23.748 28.938h-.5a5.9 5.9 0 1 1 0-11.8h.5zm-1-10.775a4.9 4.9 0 0 0 0 9.75z" fill="#323c6b" data-original="#323c6b" style="" class=""/><path xmlns="http://www.w3.org/2000/svg" d="m50.752 28.439a5.4 5.4 0 1 0 0-10.8z" fill="#969bb3" data-original="#d5d6db" style="" class=""/><path xmlns="http://www.w3.org/2000/svg" d="m50.752 28.938h-.5v-11.8h.5a5.9 5.9 0 1 1 0 11.8zm.5-10.775v9.75a4.9 4.9 0 0 0 0-9.75z" fill="#323c6b" data-original="#323c6b" style="" class=""/><path xmlns="http://www.w3.org/2000/svg" d="m22.743 37.447h28.514v32.803h-28.514z" fill="#e4e1e9" data-original="#e1e6e9" style="" class=""/><path xmlns="http://www.w3.org/2000/svg" d="m48.58 37.45h2.68v32.8h-2.68z" fill="#969bb3" data-original="#d5d6db" style="" class=""/><path xmlns="http://www.w3.org/2000/svg" d="m30.708 33.492h12.583v3.955h-12.583z" fill="#969bb3" data-original="#d5d6db" style="" class=""/><path xmlns="http://www.w3.org/2000/svg" d="m43.792 37.946h-13.584v-4.954h13.584zm-12.583-1h11.583v-2.954h-11.584z" fill="#323c6b" data-original="#323c6b" style="" class=""/><path xmlns="http://www.w3.org/2000/svg" d="m20.064 45.442v12.8h-5.002v-16.798" fill="#eeeeef" data-original="#eeefee" style="" class=""/><path xmlns="http://www.w3.org/2000/svg" d="m20.564 58.742h-6.002v-17.298h1v16.298h4.002v-12.301h1z" fill="#323c6b" data-original="#323c6b" style="" class=""/><path xmlns="http://www.w3.org/2000/svg" d="m19.059 45.442h3.684v-8h-3.684a4 4 0 1 0 0 8z" fill="#969bb3" data-original="#d5d6db" style="" class=""/><path xmlns="http://www.w3.org/2000/svg" d="m23.243 45.941h-4.184a4.5 4.5 0 0 1 0-9h4.184zm-4.184-8a3.5 3.5 0 0 0 0 7h3.184v-7z" fill="#323c6b" data-original="#323c6b" style="" class=""/><path xmlns="http://www.w3.org/2000/svg" d="m58.938 41.444v16.798h-5.002v-12.8" fill="#eeeeef" data-original="#eeefee" style="" class=""/><path xmlns="http://www.w3.org/2000/svg" d="m58.94 41.44v16.8h-2.5v-14.8z" fill="#969bb3" data-original="#d5d6db" style="" class=""/><path xmlns="http://www.w3.org/2000/svg" d="m54.941 45.442h-3.684v-8h3.684a4 4 0 0 1 0 8z" fill="#969bb3" data-original="#d5d6db" style="" class=""/><path xmlns="http://www.w3.org/2000/svg" d="m54.941 45.941h-4.184v-9h4.184a4.5 4.5 0 0 1 0 9zm-3.184-1h3.184a3.5 3.5 0 0 0 0-7h-3.184z" fill="#323c6b" data-original="#323c6b" style="" class=""/><circle xmlns="http://www.w3.org/2000/svg" cx="30.971" cy="20.76" fill="#969bb3" r="2.826" data-original="#d5d6db" style="" class=""/><path xmlns="http://www.w3.org/2000/svg" d="m30.971 24.086a3.326 3.326 0 1 1 3.329-3.326 3.33 3.33 0 0 1 -3.329 3.326zm0-5.653a2.326 2.326 0 1 0 2.329 2.327 2.33 2.33 0 0 0 -2.329-2.327z" fill="#323c6b" data-original="#323c6b" style="" class=""/><circle xmlns="http://www.w3.org/2000/svg" cx="43.029" cy="20.76" fill="#969bb3" r="2.826" data-original="#d5d6db" style="" class=""/><path xmlns="http://www.w3.org/2000/svg" d="m43.029 24.086a3.326 3.326 0 1 1 3.327-3.326 3.33 3.33 0 0 1 -3.327 3.326zm0-5.653a2.326 2.326 0 1 0 2.327 2.327 2.329 2.329 0 0 0 -2.327-2.327z" fill="#323c6b" data-original="#323c6b" style="" class=""/><path xmlns="http://www.w3.org/2000/svg" d="m32.312 28.599h9.377v1h-9.377z" fill="#323c6b" data-original="#323c6b" style="" class=""/><path xmlns="http://www.w3.org/2000/svg" d="m36.5 8.279h1v4.306h-1z" fill="#323c6b" data-original="#323c6b" style="" class=""/><circle xmlns="http://www.w3.org/2000/svg" cx="37" cy="5.639" fill="#969bb3" r="2.639" data-original="#d5d6db" style="" class=""/><path xmlns="http://www.w3.org/2000/svg" d="m37 8.779a3.139 3.139 0 1 1 3.139-3.14 3.143 3.143 0 0 1 -3.139 3.14zm0-5.279a2.139 2.139 0 1 0 2.139 2.139 2.141 2.141 0 0 0 -2.139-2.139z" fill="#323c6b" data-original="#323c6b" style="" class=""/><circle xmlns="http://www.w3.org/2000/svg" cx="37" cy="54.13" fill="#6e62fc" r="8.13" data-original="#fcd462" style="" class=""/><path xmlns="http://www.w3.org/2000/svg" d="m45.13 54.13a8.089 8.089 0 0 1 -2.96 6.27 8.124 8.124 0 0 0 -12.1-10.51 8.126 8.126 0 0 1 15.06 4.24z" fill="#6356f7" data-original="#f7be56" style="" class=""/><g xmlns="http://www.w3.org/2000/svg" fill="#323c6b"><path d="m20.356 16.188a.474.474 0 0 1 -.083-.007.5.5 0 0 1 -.411-.575 7.775 7.775 0 0 1 7.69-6.521.5.5 0 0 1 0 1 6.778 6.778 0 0 0 -6.7 5.685.5.5 0 0 1 -.496.418z" fill="#323c6b" data-original="#323c6b" style="" class=""/><path d="m30.094 10.085h-.375a.5.5 0 0 1 0-1h.375a.5.5 0 0 1 0 1z" fill="#323c6b" data-original="#323c6b" style="" class=""/><path d="m54.257 73.75h-2.09a.5.5 0 0 1 0-1h1.59v-5.875a.5.5 0 0 1 1 0v6.375a.5.5 0 0 1 -.5.5z" fill="#323c6b" data-original="#323c6b" style="" class=""/><path d="m54.257 65.125a.5.5 0 0 1 -.5-.5v-.333a.5.5 0 0 1 1 0v.333a.5.5 0 0 1 -.5.5z" fill="#323c6b" data-original="#323c6b" style="" class=""/><path d="m36.169 58.943-.838-.544 1.648-2.544-2.428-1.582 2.966-4.942.857.515-2.469 4.116 2.456 1.599z" fill="#323c6b" data-original="#323c6b" style="" class=""/><path d="m51.757 70.75h-29.514v-33.8h29.514zm-28.514-1h27.514v-31.8h-27.514z" fill="#323c6b" data-original="#323c6b" style="" class=""/><path d="m59.438 58.742h-6.002v-13.301h1v12.301h4.002v-16.298h1z" fill="#323c6b" data-original="#323c6b" style="" class=""/><path d="m37 62.759a8.63 8.63 0 1 1 8.629-8.63 8.64 8.64 0 0 1 -8.629 8.63zm0-16.259a7.63 7.63 0 1 0 7.629 7.629 7.638 7.638 0 0 0 -7.629-7.629z" fill="#323c6b" data-original="#323c6b" style="" class=""/><path d="m46.447 33.992h-18.894a4.811 4.811 0 0 1 -4.805-4.806v-12.3a4.811 4.811 0 0 1 4.805-4.806h18.894a4.811 4.811 0 0 1 4.805 4.806v12.3a4.811 4.811 0 0 1 -4.805 4.806zm-18.894-20.907a3.81 3.81 0 0 0 -3.805 3.806v12.3a3.81 3.81 0 0 0 3.805 3.806h18.894a3.81 3.81 0 0 0 3.805-3.806v-12.3a3.81 3.81 0 0 0 -3.805-3.806z" fill="#323c6b" data-original="#323c6b" style="" class=""/></g></g></svg>
