<?xml version="1.0"?>
<svg id="speak" width="112" height="112" viewBox="0 0 112 112" fill="none" xmlns="http://www.w3.org/2000/svg">
                <path d="M70.2997 19.0475H41.7018C38.1033 19.0475 35.1862 21.9647 35.1862 25.5632V44.1749C35.1862 47.7734 38.1033 50.6906 41.7018 50.6906H70.2997C73.8982 50.6906 76.8153 47.7734 76.8153 44.1749V25.5632C76.8153 21.9647 73.8982 19.0475 70.2997 19.0475Z" fill="#E4E1E9"/>
                <path d="M76.8108 25.5632V44.1794C76.8103 45.523 76.3939 46.8335 75.6189 47.931C74.8439 49.0285 73.7481 49.8592 72.4822 50.3092C72.7017 49.6399 72.8141 48.9401 72.8151 48.2357V29.6346C72.8171 28.7786 72.6503 27.9307 72.3241 27.1394C71.9979 26.348 71.5188 25.6288 70.9143 25.0229C70.3098 24.4169 69.5917 23.9362 68.8011 23.6082C68.0105 23.2802 67.163 23.1113 66.307 23.1113H37.7016C36.9588 23.1113 36.2215 23.2393 35.5222 23.4897C35.9588 22.1978 36.7893 21.0753 37.8969 20.2798C39.0046 19.4844 40.3336 19.0561 41.6973 19.0551H70.3027C72.0288 19.0551 73.6841 19.7408 74.9046 20.9613C76.1251 22.1818 76.8108 23.8372 76.8108 25.5632V25.5632Z" fill="#969BB3"/>
                <path d="M35.1862 43.0428C33.0185 43.0428 30.9397 42.1817 29.407 40.649C27.8743 39.1162 27.0132 37.0374 27.0132 34.8698C27.0132 32.7022 27.8743 30.6234 29.407 29.0906C30.9397 27.5579 33.0185 26.6968 35.1862 26.6968V43.0428Z" fill="#969BB3"/>
                <path d="M35.9429 43.798H35.1861C34.0135 43.798 32.8523 43.5671 31.7689 43.1183C30.6855 42.6695 29.7011 42.0118 28.8719 41.1826C28.0427 40.3534 27.3849 39.369 26.9361 38.2856C26.4874 37.2022 26.2564 36.041 26.2564 34.8683C26.2564 33.6956 26.4874 32.5344 26.9361 31.451C27.3849 30.3676 28.0427 29.3832 28.8719 28.554C29.7011 27.7248 30.6855 27.0671 31.7689 26.6183C32.8523 26.1695 34.0135 25.9386 35.1861 25.9386H35.9429V43.798ZM34.4294 27.4899C32.6014 27.6753 30.9073 28.5326 29.6753 29.8958C28.4434 31.259 27.7614 33.0309 27.7614 34.8683C27.7614 36.7057 28.4434 38.4776 29.6753 39.8408C30.9073 41.204 32.6014 42.0613 34.4294 42.2467V27.4899Z" fill="#323C6B"/>
                <path d="M76.8138 43.0428C78.9815 43.0428 81.0603 42.1817 82.593 40.649C84.1257 39.1162 84.9868 37.0374 84.9868 34.8698C84.9868 32.7022 84.1257 30.6234 82.593 29.0906C81.0603 27.5579 78.9815 26.6968 76.8138 26.6968V43.0428Z" fill="#969BB3"/>
                <path d="M76.8138 43.798H76.0571V25.9386H76.8138C77.9865 25.9386 79.1477 26.1695 80.2311 26.6183C81.3145 27.0671 82.2989 27.7248 83.1281 28.554C83.9573 29.3832 84.6151 30.3676 85.0638 31.451C85.5126 32.5344 85.7436 33.6956 85.7436 34.8683C85.7436 36.041 85.5126 37.2022 85.0638 38.2856C84.6151 39.369 83.9573 40.3534 83.1281 41.1826C82.2989 42.0118 81.3145 42.6695 80.2311 43.1183C79.1477 43.5671 77.9865 43.798 76.8138 43.798V43.798ZM77.5706 27.4899V42.2467C79.3986 42.0613 81.0927 41.204 82.3246 39.8408C83.5566 38.4776 84.2386 36.7057 84.2386 34.8683C84.2386 33.0309 83.5566 31.259 82.3246 29.8958C81.0927 28.5326 79.3986 27.6753 77.5706 27.4899V27.4899Z" fill="#323C6B"/>
                <path d="M34.4218 56.6765H77.5781V106.324H34.4218V56.6765Z" fill="#E4E1E9"/>
                <path d="M73.5265 56.6811H77.5827V106.324H73.5265V56.6811Z" fill="#969BB3"/>
                <path d="M46.4769 50.6906H65.5215V56.6765H46.4769V50.6906Z" fill="#969BB3"/>
                <path d="M66.2798 57.4318H45.7202V49.9338H66.2798V57.4318ZM47.2352 55.9183H64.7663V51.4474H47.2337L47.2352 55.9183Z" fill="#323C6B"/>
                <path d="M30.3671 68.7771V88.15H22.7965V62.726" fill="#EEEEEF"/>
                <path d="M31.1238 88.9068H22.0397V62.726H23.5532V87.3933H29.6103V68.7756H31.1238V88.9068Z" fill="#323C6B"/>
                <path d="M28.846 68.7771H34.4218V56.6689H28.846C27.2404 56.6689 25.7005 57.3068 24.5652 58.4421C23.4298 59.5775 22.792 61.1174 22.792 62.723C22.792 64.3286 23.4298 65.8685 24.5652 67.0039C25.7005 68.1392 27.2404 68.7771 28.846 68.7771Z" fill="#969BB3"/>
                <path d="M35.1786 69.5323H28.846C27.0397 69.5323 25.3073 68.8148 24.0301 67.5375C22.7528 66.2602 22.0352 64.5279 22.0352 62.7215C22.0352 60.9152 22.7528 59.1828 24.0301 57.9055C25.3073 56.6283 27.0397 55.9107 28.846 55.9107H35.1786V69.5323ZM28.846 57.4242C27.4411 57.4242 26.0937 57.9823 25.1003 58.9758C24.1068 59.9692 23.5487 61.3166 23.5487 62.7215C23.5487 64.1264 24.1068 65.4738 25.1003 66.4673C26.0937 67.4607 27.4411 68.0188 28.846 68.0188H33.6651V57.4242H28.846Z" fill="#323C6B"/>
                <path d="M89.2034 62.726V88.15H81.6328V68.7771" fill="#EEEEEF"/>
                <path d="M89.2065 62.72V88.147H85.4227V65.747L89.2065 62.72Z" fill="#969BB3"/>
                <path d="M83.1539 68.7771H77.5781V56.6689H83.1539C84.7595 56.6689 86.2994 57.3068 87.4348 58.4421C88.5701 59.5775 89.208 61.1174 89.208 62.723C89.208 64.3286 88.5701 65.8685 87.4348 67.0039C86.2994 68.1392 84.7595 68.7771 83.1539 68.7771Z" fill="#969BB3"/>
                <path d="M83.154 69.5323H76.8214V55.9107H83.154C84.9603 55.9107 86.6927 56.6283 87.9699 57.9055C89.2472 59.1828 89.9648 60.9152 89.9648 62.7215C89.9648 64.5279 89.2472 66.2602 87.9699 67.5375C86.6927 68.8148 84.9603 69.5323 83.154 69.5323ZM78.3349 68.0188H83.154C84.5589 68.0188 85.9063 67.4607 86.8997 66.4673C87.8931 65.4738 88.4513 64.1264 88.4513 62.7215C88.4513 61.3166 87.8931 59.9692 86.8997 58.9758C85.9063 57.9823 84.5589 57.4242 83.154 57.4242H78.3349V68.0188Z" fill="#323C6B"/>
                <path d="M46.875 35.6977C49.2373 35.6977 51.1522 33.7828 51.1522 31.4205C51.1522 29.0583 49.2373 27.1433 46.875 27.1433C44.5128 27.1433 42.5978 29.0583 42.5978 31.4205C42.5978 33.7828 44.5128 35.6977 46.875 35.6977Z" fill="#969BB3"/>
                <path d="M46.875 36.4545C45.8796 36.4536 44.9067 36.1576 44.0795 35.6039C43.2523 35.0502 42.6078 34.2637 42.2275 33.3438C41.8472 32.4239 41.7481 31.4118 41.9429 30.4357C42.1376 29.4595 42.6174 28.5629 43.3216 27.8594C44.0258 27.1558 44.9228 26.6768 45.8991 26.483C46.8755 26.2891 47.8874 26.389 48.807 26.7702C49.7266 27.1513 50.5125 27.7965 51.0654 28.6243C51.6184 29.452 51.9135 30.4251 51.9135 31.4205C51.9119 32.7559 51.3804 34.0361 50.4357 34.9799C49.491 35.9237 48.2104 36.4541 46.875 36.4545V36.4545ZM46.875 27.8986C46.179 27.8995 45.4988 28.1067 44.9205 28.494C44.3422 28.8813 43.8917 29.4313 43.6259 30.0746C43.3601 30.7178 43.291 31.4255 43.4272 32.108C43.5634 32.7906 43.8989 33.4174 44.3913 33.9094C44.8836 34.4013 45.5108 34.7363 46.1935 34.8719C46.8761 35.0076 47.5837 34.9378 48.2267 34.6715C48.8698 34.4051 49.4194 33.9541 49.8062 33.3755C50.193 32.7968 50.3997 32.1165 50.4 31.4205C50.3988 30.4863 50.0269 29.5907 49.366 28.9304C48.7051 28.2701 47.8092 27.899 46.875 27.8986V27.8986Z" fill="#323C6B"/>
                <path d="M65.125 35.6977C67.4872 35.6977 69.4022 33.7828 69.4022 31.4205C69.4022 29.0583 67.4872 27.1433 65.125 27.1433C62.7627 27.1433 60.8478 29.0583 60.8478 31.4205C60.8478 33.7828 62.7627 35.6977 65.125 35.6977Z" fill="#969BB3"/>
                <path d="M65.125 36.4545C64.1294 36.4542 63.1563 36.1587 62.3287 35.6054C61.501 35.052 60.8561 34.2657 60.4753 33.3459C60.0945 32.426 59.995 31.4139 60.1894 30.4375C60.3838 29.4611 60.8634 28.5643 61.5675 27.8604C62.2715 27.1566 63.1685 26.6773 64.145 26.4832C65.1214 26.2891 66.1335 26.3888 67.0532 26.7699C67.973 27.151 68.7591 27.7962 69.3122 28.624C69.8652 29.4518 70.1604 30.425 70.1604 31.4205C70.1588 32.7554 69.6277 34.0351 68.6837 34.9788C67.7397 35.9226 66.4598 36.4533 65.125 36.4545V36.4545ZM65.125 27.8986C64.4288 27.8989 63.7484 28.1056 63.1697 28.4925C62.591 28.8794 62.14 29.4293 61.8737 30.0725C61.6075 30.7157 61.5379 31.4234 61.6738 32.1062C61.8096 32.7889 62.1449 33.4161 62.6372 33.9083C63.1294 34.4006 63.7565 34.7358 64.4393 34.8717C65.1221 35.0076 65.8298 34.938 66.473 34.6717C67.1162 34.4055 67.666 33.9545 68.053 33.3758C68.4399 32.7971 68.6466 32.1167 68.6469 31.4205C68.6461 30.4867 68.2748 29.5913 67.6145 28.931C66.9542 28.2707 66.0588 27.8994 65.125 27.8986V27.8986Z" fill="#323C6B"/>
                <path d="M48.9046 43.285H63.0968V44.7985H48.9046V43.285Z" fill="#323C6B"/>
                <path d="M55.2432 12.5304H56.7567V19.0476H55.2432V12.5304Z" fill="#323C6B"/>
                <path d="M56 12.5289C58.2059 12.5289 59.9941 10.7406 59.9941 8.53469C59.9941 6.32877 58.2059 4.54053 56 4.54053C53.794 4.54053 52.0058 6.32877 52.0058 8.53469C52.0058 10.7406 53.794 12.5289 56 12.5289Z" fill="#969BB3"/>
                <path d="M56 13.2871C55.0604 13.2871 54.1419 13.0085 53.3607 12.4865C52.5794 11.9646 51.9705 11.2227 51.6109 10.3546C51.2512 9.48662 51.1571 8.53144 51.3403 7.6099C51.5235 6.68835 51.9758 5.84182 52.6401 5.17733C53.3043 4.51284 54.1507 4.06024 55.0722 3.87675C55.9937 3.69327 56.9489 3.78713 57.8171 4.14649C58.6852 4.50584 59.4273 5.11454 59.9495 5.89563C60.4717 6.67671 60.7506 7.59511 60.7509 8.53469C60.7497 9.79448 60.2488 11.0024 59.3582 11.8933C58.4675 12.7843 57.2598 13.2855 56 13.2871V13.2871ZM56 5.29728C55.3597 5.29728 54.7338 5.48715 54.2014 5.84288C53.669 6.19861 53.2541 6.70423 53.009 7.29578C52.764 7.88734 52.6999 8.53828 52.8248 9.16627C52.9497 9.79427 53.2581 10.3711 53.7108 10.8239C54.1636 11.2766 54.7404 11.585 55.3684 11.7099C55.9964 11.8348 56.6474 11.7707 57.2389 11.5257C57.8305 11.2806 58.3361 10.8657 58.6918 10.3333C59.0475 9.8009 59.2374 9.17498 59.2374 8.53469C59.2366 7.67632 58.8953 6.85334 58.2883 6.24638C57.6814 5.63942 56.8584 5.29808 56 5.29728V5.29728Z" fill="#323C6B"/>
                <path d="M56 94.2313C62.7958 94.2313 68.3049 88.7223 68.3049 81.9265C68.3049 75.1307 62.7958 69.6216 56 69.6216C49.2042 69.6216 43.6951 75.1307 43.6951 81.9265C43.6951 88.7223 49.2042 94.2313 56 94.2313Z" fill="#6E62FC"/>
                <path d="M68.3049 81.9265C68.3082 83.7414 67.908 85.5344 67.1332 87.1757C66.3584 88.8169 65.2283 90.2654 63.8249 91.4162C65.3466 88.9349 65.9388 85.9941 65.4959 83.1172C65.053 80.2403 63.6039 77.6138 61.4064 75.705C59.2088 73.7962 56.4053 72.729 53.4948 72.6931C50.5842 72.6572 47.7553 73.6551 45.5114 75.5092C46.9095 73.2209 49.0173 71.4524 51.5136 70.4729C54.0098 69.4933 56.7579 69.3565 59.3391 70.0832C61.9203 70.81 64.1933 72.3604 65.8119 74.4984C67.4304 76.6364 68.3059 79.2449 68.3049 81.9265Z" fill="#6356F7"/>
                <path d="M30.809 24.5007C30.7669 24.5009 30.7249 24.4973 30.6834 24.4901C30.4856 24.4571 30.3089 24.3469 30.1923 24.1837C30.0756 24.0206 30.0285 23.8177 30.0613 23.6199C30.5124 20.8601 31.9314 18.3512 34.0641 16.5427C36.1969 14.7341 38.904 13.7442 41.7003 13.7502C41.901 13.7502 42.0935 13.83 42.2354 13.9719C42.3773 14.1138 42.457 14.3063 42.457 14.507C42.457 14.7077 42.3773 14.9002 42.2354 15.0421C42.0935 15.184 41.901 15.2638 41.7003 15.2638C39.2635 15.2599 36.9049 16.1236 35.0469 17.7002C33.1888 19.2767 31.9527 21.4632 31.5597 23.8681C31.5302 24.0456 31.4385 24.2067 31.3009 24.3227C31.1633 24.4386 30.9889 24.5017 30.809 24.5007V24.5007Z" fill="#323C6B"/>
                <path d="M45.5476 15.2638H44.98C44.7793 15.2638 44.5868 15.184 44.4449 15.0421C44.303 14.9002 44.2233 14.7077 44.2233 14.507C44.2233 14.3063 44.303 14.1138 44.4449 13.9719C44.5868 13.83 44.7793 13.7502 44.98 13.7502H45.5476C45.7483 13.7502 45.9408 13.83 46.0827 13.9719C46.2246 14.1138 46.3043 14.3063 46.3043 14.507C46.3043 14.7077 46.2246 14.9002 46.0827 15.0421C45.9408 15.184 45.7483 15.2638 45.5476 15.2638Z" fill="#323C6B"/>
                <path d="M82.1187 111.622H78.9554C78.7547 111.622 78.5622 111.542 78.4203 111.4C78.2784 111.258 78.1987 111.066 78.1987 110.865C78.1987 110.664 78.2784 110.472 78.4203 110.33C78.5622 110.188 78.7547 110.108 78.9554 110.108H81.3619V101.216C81.3619 101.015 81.4416 100.823 81.5836 100.681C81.7255 100.539 81.918 100.459 82.1187 100.459C82.3194 100.459 82.5119 100.539 82.6538 100.681C82.7957 100.823 82.8754 101.015 82.8754 101.216V110.865C82.8754 111.066 82.7957 111.258 82.6538 111.4C82.5119 111.542 82.3194 111.622 82.1187 111.622V111.622Z" fill="#323C6B"/>
                <path d="M82.1186 98.5675C81.9179 98.5675 81.7254 98.4878 81.5835 98.3459C81.4416 98.204 81.3619 98.0115 81.3619 97.8108V97.3068C81.3619 97.1061 81.4416 96.9136 81.5835 96.7717C81.7254 96.6297 81.9179 96.55 82.1186 96.55C82.3193 96.55 82.5118 96.6297 82.6537 96.7717C82.7957 96.9136 82.8754 97.1061 82.8754 97.3068V97.8108C82.8754 98.0115 82.7957 98.204 82.6537 98.3459C82.5118 98.4878 82.3193 98.5675 82.1186 98.5675Z" fill="#323C6B"/>
                <path d="M54.7422 89.211L53.4739 88.3877L55.9681 84.5373L52.2933 82.1429L56.7824 74.6631L58.0795 75.4426L54.3426 81.6722L58.0598 84.0923L54.7422 89.211Z" fill="#323C6B"/>
                <path d="M78.3349 107.081H33.665V55.9243H78.3349V107.081ZM35.1786 105.568H76.8214V57.4378H35.1786V105.568Z" fill="#323C6B"/>
                <path d="M89.9601 88.9068H80.876V68.7755H82.3896V87.3933H88.4466V62.726H89.9601V88.9068Z" fill="#323C6B"/>
                <path d="M56 94.9866C53.4166 94.9869 50.8911 94.2211 48.7429 92.786C46.5947 91.351 44.9204 89.3111 43.9315 86.9245C42.9427 84.5378 42.6838 81.9115 43.1876 79.3777C43.6914 76.8439 44.9353 74.5164 46.762 72.6895C48.5886 70.8627 50.916 69.6185 53.4497 69.1144C55.9835 68.6103 58.6098 68.8689 60.9966 69.8574C63.3834 70.846 65.4234 72.5201 66.8587 74.6681C68.294 76.8161 69.0601 79.3415 69.0601 81.9249C69.0561 85.3876 67.6789 88.7073 65.2305 91.1559C62.7822 93.6046 59.4626 94.9822 56 94.9866V94.9866ZM56 70.3783C53.7158 70.378 51.4829 71.0551 49.5836 72.3239C47.6843 73.5927 46.2039 75.3963 45.3297 77.5065C44.4555 79.6167 44.2266 81.9388 44.6722 84.179C45.1177 86.4193 46.2176 88.4771 47.8327 90.0922C49.4478 91.7073 51.5057 92.8072 53.7459 93.2527C55.9862 93.6983 58.3082 93.4695 60.4184 92.5952C62.5286 91.721 64.3322 90.2406 65.601 88.3413C66.8698 86.442 67.5469 84.2091 67.5466 81.9249C67.543 78.8637 66.3253 75.9289 64.1607 73.7642C61.996 71.5996 59.0612 70.3819 56 70.3783V70.3783Z" fill="#323C6B"/>
                <path d="M70.2981 51.4473H41.7018C39.7735 51.4449 37.9249 50.6777 36.5615 49.3141C35.1981 47.9504 34.4313 46.1017 34.4293 44.1734V25.5571C34.4313 23.6289 35.1981 21.7801 36.5615 20.4164C37.9249 19.0528 39.7735 18.2856 41.7018 18.2832H70.2981C72.2264 18.2856 74.075 19.0528 75.4383 20.4164C76.8017 21.7801 77.5685 23.6289 77.5705 25.5571V44.1734C77.5685 46.1017 76.8017 47.9504 75.4383 49.3141C74.075 50.6777 72.2264 51.4449 70.2981 51.4473ZM41.7018 19.8043C40.1747 19.8063 38.7109 20.4139 37.6313 21.4938C36.5516 22.5737 35.9444 24.0377 35.9428 25.5647V44.1809C35.9444 45.7079 36.5516 47.172 37.6313 48.2519C38.7109 49.3318 40.1747 49.9394 41.7018 49.9414H70.2981C71.8251 49.9394 73.289 49.3318 74.3686 48.2519C75.4482 47.172 76.0554 45.7079 76.057 44.1809V25.5647C76.0554 24.0377 75.4482 22.5737 74.3686 21.4938C73.289 20.4139 71.8251 19.8063 70.2981 19.8043H41.7018Z" fill="#323C6B"/>
                <path d="M55.5 47C57.9853 47 60 45.8807 60 44.5C60 43.1193 57.9853 42 55.5 42C53.0147 42 51 43.1193 51 44.5C51 45.8807 53.0147 47 55.5 47Z" fill="#5F6677"/>
                <path d="M55.7509 48.5018C54.8113 48.5018 53.8929 48.2232 53.1116 47.7013C52.3304 47.1793 51.7214 46.4374 51.3618 45.5694C51.0022 44.7013 50.908 43.7462 51.0912 42.8246C51.2744 41.9031 51.7267 41.0565 52.391 40.392C53.0553 39.7276 53.9016 39.275 54.8231 39.0915C55.7446 38.908 56.6998 39.0019 57.568 39.3612C58.4361 39.7206 59.1782 40.3293 59.7004 41.1104C60.2227 41.8914 60.5015 42.8098 60.5018 43.7494C60.5006 45.0092 59.9998 46.2171 59.1091 47.108C58.2184 47.999 57.0107 48.5002 55.7509 48.5018V48.5018ZM55.7509 40.512C55.1106 40.512 54.4847 40.7019 53.9523 41.0576C53.4199 41.4133 53.005 41.9189 52.76 42.5105C52.5149 43.1021 52.4508 43.753 52.5757 44.381C52.7006 45.009 53.009 45.5858 53.4617 46.0386C53.9145 46.4914 54.4913 46.7997 55.1193 46.9246C55.7473 47.0495 56.3983 46.9854 56.9898 46.7404C57.5814 46.4953 58.087 46.0804 58.4427 45.548C58.7985 45.0156 58.9883 44.3897 58.9883 43.7494C58.9875 42.891 58.6462 42.0681 58.0392 41.4611C57.4323 40.8541 56.6093 40.5128 55.7509 40.512V40.512Z" fill="#323C6B"/>
            </svg>